<svg class="svg svg-logo" viewBox="0 0 104 36" width="104" height="36" xmlns="http://www.w3.org/2000/svg">
  <path fill="#444" d="M12.26 0h5.7v26.08c-2.92.55-5.07.77-7.4.77C3.63 26.85 0 23.74 0 17.77 0 12.03 3.84 8.3 9.78 8.3c.93 0 1.63.07 2.48.29zm0 13.12a5.73 5.73 0 00-1.92-.29c-2.88 0-4.54 1.76-4.54 4.84 0 3 1.59 4.65 4.5 4.65.63 0 1.15-.04 1.96-.15zM27 8.7v13.06c0 4.5-.34 6.66-1.33 8.52-.92 1.8-2.14 2.93-4.65 4.17l-5.28-2.48c2.51-1.17 3.73-2.2 4.5-3.78.82-1.6 1.07-3.47 1.07-8.38V8.7zM21.3.03h5.7V5.8h-5.7zm9.12 9.95a17.3 17.3 0 017.54-1.68c2.92 0 4.84.77 5.69 2.27.47.84.63 1.94.63 4.28V26.3c-2.55.36-5.77.62-8.13.62-4.76 0-6.9-1.65-6.9-5.3 0-3.95 2.84-5.78 9.82-6.36v-1.24c0-1.03-.52-1.4-1.96-1.4-2.1 0-4.46.59-6.68 1.72zm8.9 8.96c-3.76.36-4.98.95-4.98 2.42 0 1.1.7 1.6 2.25 1.6.85 0 1.63-.06 2.74-.24v-3.78zm7.73-9.36a34.4 34.4 0 018.93-1.28c2.92 0 5.03.66 6.28 1.94 1.18 1.2 1.55 2.52 1.55 5.34v11.05h-5.7V15.8c0-2.16-.73-2.97-2.76-2.97a8.5 8.5 0 00-2.62.41v13.39h-5.68zM66.03 29.7c2 1.02 3.99 1.5 6.1 1.5 3.72 0 5.31-1.5 5.31-5.09v-.1a7.9 7.9 0 01-3.69.76c-4.99 0-8.16-3.26-8.16-8.41 0-6.41 4.7-10.03 13-10.03 2.44 0 4.7.25 7.43.8l-1.95 4.07c-1.51-.3-.12-.05-1.27-.15v.58l.08 2.38.03 3.08c.04.77.04 1.54.08 2.3v1.54c0 4.84-.41 7.1-1.63 8.97-1.77 2.74-4.84 4.1-9.2 4.1-2.22 0-4.14-.33-6.13-1.1zm11.3-16.83h-.6c-1.1-.04-2.4.25-3.28.8-1.36.77-2.06 2.17-2.06 4.14 0 2.82 1.4 4.43 3.92 4.43.77 0 1.4-.15 2.13-.37v-1.94c0-.66-.03-1.4-.03-2.16l-.04-2.6-.04-1.86zm17.52-4.64c5.68 0 9.15 3.54 9.15 9.3 0 5.88-3.62 9.57-9.38 9.57-5.7 0-9.2-3.54-9.2-9.25 0-5.93 3.62-9.62 9.43-9.62zm-.12 14.33c2.18 0 3.47-1.79 3.47-4.9 0-3.08-1.25-4.9-3.43-4.9-2.26 0-3.55 1.79-3.55 4.9 0 3.11 1.3 4.9 3.5 4.9z" />
</svg>